<?xml version="1.0" encoding="iso-8859-1"?>
<!-- Generator: Adobe Illustrator 18.0.0, SVG Export Plug-In . SVG Version: 6.00 Build 0)  -->
<!DOCTYPE svg PUBLIC "-//W3C//DTD SVG 1.1//EN" "http://www.w3.org/Graphics/SVG/1.1/DTD/svg11.dtd">
<svg xmlns="http://www.w3.org/2000/svg" xmlns:xlink="http://www.w3.org/1999/xlink" version="1.1" id="Capa_1" x="0px" y="0px" viewBox="0 0 420 420" style="enable-background:new 0 0 420 420;" xml:space="preserve" width="512px" height="512px">
<g>
	<path d="M210,0C94.206,0,0,94.206,0,210s94.206,210,210,210s210-94.206,210-210S325.794,0,210,0z M210,380   c-93.738,0-170-76.262-170-170S116.262,40,210,40s170,76.262,170,170S303.738,380,210,380z" fill="#0F5598"/>
	<path d="M302.706,104.5c-2.477,0-4.884,0.713-6.962,2.063L183.322,179.57c-1.51,0.983-2.772,2.246-3.755,3.758l-73.004,112.415   c-3.27,5.033-2.561,11.767,1.684,16.009c2.416,2.417,5.629,3.748,9.048,3.748c2.476,0,4.884-0.714,6.961-2.064l112.42-73.006   c1.508-0.98,2.771-2.243,3.757-3.759l73.004-112.415c3.271-5.035,2.562-11.769-1.682-16.007   C309.339,105.831,306.126,104.5,302.706,104.5z M210,230c-11.043,0-20-8.957-20-20c0-11.043,8.957-20,20-20   c11.043,0,20,8.957,20,20C230,221.043,221.043,230,210,230z" fill="#0F5598"/>
</g>
<g>
</g>
<g>
</g>
<g>
</g>
<g>
</g>
<g>
</g>
<g>
</g>
<g>
</g>
<g>
</g>
<g>
</g>
<g>
</g>
<g>
</g>
<g>
</g>
<g>
</g>
<g>
</g>
<g>
</g>
</svg>
